<mxfile host="Electron" modified="2023-11-12T03:13:20.876Z" agent="Mozilla/5.0 (Windows NT 10.0; Win64; x64) AppleWebKit/537.36 (KHTML, like Gecko) draw.io/22.0.2 Chrome/114.0.5735.289 Electron/25.8.4 Safari/537.36" etag="mTONpBk1InQ-WbA5Fgne" version="22.0.2" type="device">
  <diagram name="Página-1" id="wrNI1vpCqRxwUT-T20el">
    <mxGraphModel dx="2765" dy="1943" grid="1" gridSize="10" guides="1" tooltips="1" connect="1" arrows="1" fold="1" page="1" pageScale="1" pageWidth="827" pageHeight="1169" math="0" shadow="0">
      <root>
        <mxCell id="0" />
        <mxCell id="1" parent="0" />
        <mxCell id="GdpdGV8DvejAYT26JRPR-2" value="" style="edgeStyle=orthogonalEdgeStyle;rounded=0;orthogonalLoop=1;jettySize=auto;html=1;" edge="1" parent="1" source="pJHE64OVepqVf9L_t78O-1" target="GdpdGV8DvejAYT26JRPR-1">
          <mxGeometry relative="1" as="geometry" />
        </mxCell>
        <mxCell id="GdpdGV8DvejAYT26JRPR-4" style="edgeStyle=orthogonalEdgeStyle;rounded=0;orthogonalLoop=1;jettySize=auto;html=1;" edge="1" parent="1" source="pJHE64OVepqVf9L_t78O-1" target="GdpdGV8DvejAYT26JRPR-3">
          <mxGeometry relative="1" as="geometry" />
        </mxCell>
        <mxCell id="pJHE64OVepqVf9L_t78O-1" value="12 fatores&lt;br&gt;Os 12 fatores são um conjunto de boas práticas para construir aplicações para a nuvem, que podem ser aplicadas a qualquer tipo de arquitetura, seja monolític&lt;br&gt;&amp;nbsp;Os 12 fatores não impõem o uso de microsserviços, mas incentivam o desenvolvimento de software que seja modular, desacoplado, configurável e portável." style="rounded=1;whiteSpace=wrap;html=1;" parent="1" vertex="1">
          <mxGeometry x="290" y="200" width="520" height="90" as="geometry" />
        </mxCell>
        <mxCell id="GdpdGV8DvejAYT26JRPR-1" value="monolito&lt;br&gt;os 12 fatores são conjuntos de boas praticas que tambem pode se aplicar a monolitos&lt;br&gt;" style="whiteSpace=wrap;html=1;rounded=1;" vertex="1" parent="1">
          <mxGeometry x="650" y="400" width="230" height="60" as="geometry" />
        </mxCell>
        <mxCell id="GdpdGV8DvejAYT26JRPR-3" value="microserviços&lt;br&gt;No entanto, os microsserviços se beneficiam mais dos 12 fatores, pois eles permitem que os serviços sejam mais independentes, escaláveis, resilientes e inovadores." style="whiteSpace=wrap;html=1;rounded=1;" vertex="1" parent="1">
          <mxGeometry x="90" y="400" width="330" height="60" as="geometry" />
        </mxCell>
        <mxCell id="GdpdGV8DvejAYT26JRPR-5" value="&lt;p style=&quot;padding: 0px; margin-right: 0px; margin-bottom: 0px; margin-left: 0px; user-select: text; word-break: break-word; font-size: 14px; line-height: var(--cib-type-body1-line-height); font-variation-settings: var(--cib-type-body1-font-variation-settings); color: rgb(17, 17, 17); font-family: -apple-system, Roboto, SegoeUI, &amp;quot;Segoe UI&amp;quot;, &amp;quot;Helvetica Neue&amp;quot;, Helvetica, &amp;quot;Microsoft YaHei&amp;quot;, &amp;quot;Meiryo UI&amp;quot;, Meiryo, &amp;quot;Arial Unicode MS&amp;quot;, sans-serif; text-align: left; background-color: rgba(255, 255, 255, 0.7); margin-top: 0px !important;&quot;&gt;m dos princípios dos microsserviços é que cada um deles deve ter seu próprio banco de dados, que não é compartilhado com nenhum outro microsserviço. Isso garante a soberania dos dados, a independência e a escalabilidade dos microsserviços. Se você usar uma base relacional compartilhada, você terá os seguintes problemas:&lt;/p&gt;&lt;ul style=&quot;margin: 12px 0px 0px; display: flex; flex-direction: column; gap: 10px; padding-inline-start: 24px; color: rgb(17, 17, 17); font-family: -apple-system, Roboto, SegoeUI, &amp;quot;Segoe UI&amp;quot;, &amp;quot;Helvetica Neue&amp;quot;, Helvetica, &amp;quot;Microsoft YaHei&amp;quot;, &amp;quot;Meiryo UI&amp;quot;, Meiryo, &amp;quot;Arial Unicode MS&amp;quot;, sans-serif; font-size: 14px; text-align: left; background-color: rgba(255, 255, 255, 0.7);&quot;&gt;&lt;li&gt;Acoplamento: os microsserviços ficarão dependentes da estrutura e do esquema da base relacional, o que dificulta a evolução e a manutenção dos microsserviços. Além disso, se um microsserviço falhar ou precisar ser atualizado, isso pode afetar os outros microsserviços que usam a mesma base.&lt;/li&gt;&lt;li&gt;Consistência: os microsserviços terão que lidar com questões de consistência e transações distribuídas, o que aumenta a complexidade e o custo dos microsserviços. Além disso, se a base relacional ficar indisponível ou corrompida, isso pode comprometer os dados e os serviços dos microsserviços.&lt;/li&gt;&lt;li&gt;Escalabilidade: os microsserviços terão que competir pelos recursos da base relacional, o que pode limitar a escalabilidade e o desempenho dos microsserviços. Além disso, se a base relacional não for projetada para suportar altas cargas de trabalho, isso pode causar gargalos e lentidão nos microsserviços.&lt;/li&gt;&lt;/ul&gt;&lt;p style=&quot;padding: 0px; margin: 12px 0px 0px; user-select: text; word-break: break-word; font-size: 14px; line-height: var(--cib-type-body1-line-height); font-variation-settings: var(--cib-type-body1-font-variation-settings); color: rgb(17, 17, 17); font-family: -apple-system, Roboto, SegoeUI, &amp;quot;Segoe UI&amp;quot;, &amp;quot;Helvetica Neue&amp;quot;, Helvetica, &amp;quot;Microsoft YaHei&amp;quot;, &amp;quot;Meiryo UI&amp;quot;, Meiryo, &amp;quot;Arial Unicode MS&amp;quot;, sans-serif; text-align: left; background-color: rgba(255, 255, 255, 0.7);&quot;&gt;Portanto, é recomendado que você use uma base de dados própria para cada microsserviço, que pode ser relacional ou não relacional, dependendo das necessidades do domínio do microsserviço.&lt;/p&gt;" style="rounded=0;whiteSpace=wrap;html=1;" vertex="1" parent="1">
          <mxGeometry x="-155" y="550" width="820" height="290" as="geometry" />
        </mxCell>
        <mxCell id="GdpdGV8DvejAYT26JRPR-7" style="edgeStyle=orthogonalEdgeStyle;rounded=0;orthogonalLoop=1;jettySize=auto;html=1;dashed=1;endArrow=oval;endFill=1;" edge="1" parent="1" source="GdpdGV8DvejAYT26JRPR-6" target="pJHE64OVepqVf9L_t78O-1">
          <mxGeometry relative="1" as="geometry" />
        </mxCell>
        <mxCell id="GdpdGV8DvejAYT26JRPR-8" style="edgeStyle=orthogonalEdgeStyle;rounded=0;orthogonalLoop=1;jettySize=auto;html=1;dashed=1;endArrow=oval;endFill=1;" edge="1" parent="1" source="GdpdGV8DvejAYT26JRPR-6" target="GdpdGV8DvejAYT26JRPR-3">
          <mxGeometry relative="1" as="geometry">
            <Array as="points">
              <mxPoint x="150" y="280" />
              <mxPoint x="150" y="280" />
            </Array>
          </mxGeometry>
        </mxCell>
        <mxCell id="GdpdGV8DvejAYT26JRPR-6" value="Cloud native" style="rounded=1;whiteSpace=wrap;html=1;" vertex="1" parent="1">
          <mxGeometry x="-110" y="-180" width="520" height="90" as="geometry" />
        </mxCell>
        <mxCell id="GdpdGV8DvejAYT26JRPR-11" value="microsserviços estão diretamente relacionados a uma aplicação ser cloud native. Uma aplicação cloud native é aquela que é projetada para aproveitar as vantagens da nuvem, como elasticidade, distribuição e escalabilidade. Os microsserviços são uma forma de arquitetura que consiste em dividir uma aplicação em vários serviços menores e independentes, que se comunicam por meio de interfaces padronizadas, como APIs.&amp;nbsp;" style="rounded=0;whiteSpace=wrap;html=1;" vertex="1" parent="1">
          <mxGeometry x="-70" y="90" width="210" height="180" as="geometry" />
        </mxCell>
        <mxCell id="GdpdGV8DvejAYT26JRPR-12" value="&lt;p style=&quot;padding: 0px; margin-right: 0px; margin-bottom: 0px; margin-left: 0px; user-select: text; word-break: break-word; font-size: 14px; line-height: var(--cib-type-body1-line-height); font-variation-settings: var(--cib-type-body1-font-variation-settings); color: rgb(17, 17, 17); font-family: -apple-system, Roboto, SegoeUI, &amp;quot;Segoe UI&amp;quot;, &amp;quot;Helvetica Neue&amp;quot;, Helvetica, &amp;quot;Microsoft YaHei&amp;quot;, &amp;quot;Meiryo UI&amp;quot;, Meiryo, &amp;quot;Arial Unicode MS&amp;quot;, sans-serif; text-align: left; background-color: rgba(255, 255, 255, 0.7); margin-top: 0px !important;&quot;&gt;&amp;nbsp;pode ter um monolito cloud native, desde que ele siga os princípios e as práticas dos 12 fatores, que são as boas práticas para construir aplicações para a nuvem. Um monolito cloud native é um aplicativo que é projetado como uma única unidade, mas que pode ser executado e escalado em qualquer ambiente de nuvem, seja público, privado ou híbrido. Um monolito cloud native também pode ser dividido em microsserviços no futuro, se necessário, sem grandes refatorações. Alguns exemplos de monolitos cloud native são:&lt;/p&gt;&lt;ul style=&quot;margin: 12px 0px 0px; display: flex; flex-direction: column; gap: 10px; padding-inline-start: 24px; color: rgb(17, 17, 17); font-family: -apple-system, Roboto, SegoeUI, &amp;quot;Segoe UI&amp;quot;, &amp;quot;Helvetica Neue&amp;quot;, Helvetica, &amp;quot;Microsoft YaHei&amp;quot;, &amp;quot;Meiryo UI&amp;quot;, Meiryo, &amp;quot;Arial Unicode MS&amp;quot;, sans-serif; font-size: 14px; text-align: left; background-color: rgba(255, 255, 255, 0.7);&quot;&gt;&lt;li&gt;Spotify: um aplicativo de streaming de música que usa uma arquitetura monolítica, mas que é executado em contêineres Docker na nuvem do Google.&amp;nbsp;&lt;a style=&quot;position: relative; border-bottom: 2px solid transparent; text-decoration-style: dotted; text-decoration-color: var(--cib-color-foreground-neutral-tertiary); text-underline-offset: 3px;&quot; target=&quot;_blank&quot; data-citationid=&quot;62646efe-4dc1-d65e-be97-59621f3ca19f-4-group&quot; class=&quot;tooltip-target&quot; href=&quot;https://cloudnative.net.br/curso&quot;&gt;O Spotify usa as práticas dos 12 fatores, como configurações no ambiente, processos sem estado, port binding e descartabilidade, para garantir a disponibilidade e a escalabilidade do seu serviço&lt;/a&gt;&lt;a style=&quot;position: relative;&quot; aria-label=&quot;1:&quot; data-citationid=&quot;62646efe-4dc1-d65e-be97-59621f3ca19f-4&quot; target=&quot;_blank&quot; class=&quot;ac-anchor sup-target&quot; href=&quot;https://cloudnative.net.br/curso&quot;&gt;1&lt;/a&gt;.&lt;/li&gt;&lt;li&gt;Netflix: um aplicativo de streaming de vídeo que começou como um monolito, mas que foi migrado para uma arquitetura de microsserviços ao longo do tempo.&amp;nbsp;&lt;a style=&quot;position: relative; border-bottom: 2px solid transparent; text-decoration-style: dotted; text-decoration-color: var(--cib-color-foreground-neutral-tertiary); text-underline-offset: 3px;&quot; target=&quot;_blank&quot; data-citationid=&quot;62646efe-4dc1-d65e-be97-59621f3ca19f-7-group&quot; class=&quot;tooltip-target&quot; href=&quot;https://learn.microsoft.com/pt-br/dotnet/architecture/cloud-native/definition&quot;&gt;O Netflix usou as práticas dos 12 fatores, como base de código, dependências, serviços de apoio, concorrência e processos, para facilitar a transição e a evolução do seu serviço&lt;/a&gt;&lt;a style=&quot;position: relative;&quot; aria-label=&quot;2:&quot; data-citationid=&quot;62646efe-4dc1-d65e-be97-59621f3ca19f-7&quot; target=&quot;_blank&quot; class=&quot;ac-anchor sup-target&quot; href=&quot;https://learn.microsoft.com/pt-br/dotnet/architecture/cloud-native/definition&quot;&gt;&lt;span style=&quot;position: relative; display: inline-flex; align-items: center; justify-content: center; vertical-align: top; top: -1px; margin: 0px 2px; min-width: 14px; height: 14px; text-decoration-color: transparent; outline: transparent solid 1px; color: var(--cib-color-foreground-accent-primary); background: var(--cib-color-fill-accent-alt-primary); border-radius: var(--cib-comp-message-citation-border-radius); font-size: var(--cib-type-caption2-strong-font-size); line-height: var(--cib-type-caption2-strong-line-height); font-weight: var(--cib-type-caption2-strong-font-weight); font-variation-settings: var(--cib-type-caption2-strong-font-variation-settings);&quot;&gt;2&lt;/span&gt;&lt;/a&gt;.&lt;/li&gt;&lt;li&gt;WordPress: um aplicativo de gerenciamento de conteúdo que é executado como um monolito, mas que pode ser implantado em qualquer ambiente de nuvem, usando ferramentas como Docker, Kubernetes, Helm e Terraform. O WordPress usa as práticas dos 12 fatores, como base de código, configurações, serviços de apoio, port binding e processos, para garantir a portabilidade e a flexibilidade do seu serviço.&lt;/li&gt;&lt;/ul&gt;&lt;p style=&quot;padding: 0px; margin: 12px 0px 0px; user-select: text; word-break: break-word; font-size: 14px; line-height: var(--cib-type-body1-line-height); font-variation-settings: var(--cib-type-body1-font-variation-settings); color: rgb(17, 17, 17); font-family: -apple-system, Roboto, SegoeUI, &amp;quot;Segoe UI&amp;quot;, &amp;quot;Helvetica Neue&amp;quot;, Helvetica, &amp;quot;Microsoft YaHei&amp;quot;, &amp;quot;Meiryo UI&amp;quot;, Meiryo, &amp;quot;Arial Unicode MS&amp;quot;, sans-serif; text-align: left; background-color: rgba(255, 255, 255, 0.7);&quot;&gt;Portanto, você pode ter um monolito cloud native, desde que ele siga os princípios e as práticas dos 12 fatores, que são as boas práticas para construir aplicações para a nuvem.&amp;nbsp;&lt;/p&gt;" style="rounded=0;whiteSpace=wrap;html=1;" vertex="1" parent="1">
          <mxGeometry x="940" y="-290" width="1020" height="330" as="geometry" />
        </mxCell>
        <mxCell id="GdpdGV8DvejAYT26JRPR-13" value="" style="curved=1;endArrow=oval;html=1;rounded=0;exitX=1;exitY=0.5;exitDx=0;exitDy=0;entryX=1;entryY=0.5;entryDx=0;entryDy=0;endFill=1;dashed=1;dashPattern=1 4;" edge="1" parent="1" source="GdpdGV8DvejAYT26JRPR-6" target="GdpdGV8DvejAYT26JRPR-1">
          <mxGeometry width="50" height="50" relative="1" as="geometry">
            <mxPoint x="660" y="180" as="sourcePoint" />
            <mxPoint x="710" y="130" as="targetPoint" />
            <Array as="points">
              <mxPoint x="710" y="180" />
              <mxPoint x="1050" y="-80" />
            </Array>
          </mxGeometry>
        </mxCell>
      </root>
    </mxGraphModel>
  </diagram>
</mxfile>
